<mxfile host="app.diagrams.net" modified="2021-04-13T05:35:05.095Z" agent="5.0 (Macintosh)" etag="hE875CZzpLuveSo1WOFC" version="14.5.8" type="github">
  <diagram id="NtPqI9kTRExBikKgAwcU" name="Page-1">
    <mxGraphModel dx="1220" dy="687" grid="1" gridSize="10" guides="1" tooltips="1" connect="1" arrows="1" fold="1" page="1" pageScale="1" pageWidth="1200" pageHeight="1600" math="0" shadow="0">
      <root>
        <mxCell id="0" />
        <mxCell id="1" parent="0" />
        <mxCell id="iADVquFSvu7vqTGoxzaM-1" value="" style="rounded=0;whiteSpace=wrap;html=1;fontColor=#333333;strokeColor=none;fillColor=#F4F4F4;" parent="1" vertex="1">
          <mxGeometry x="80" y="80" width="1050" height="910" as="geometry" />
        </mxCell>
        <mxCell id="iADVquFSvu7vqTGoxzaM-2" value="" style="rounded=0;whiteSpace=wrap;html=1;fillColor=none;" parent="1" vertex="1">
          <mxGeometry x="90" y="90" width="1030" height="890" as="geometry" />
        </mxCell>
        <mxCell id="iADVquFSvu7vqTGoxzaM-4" value="" style="rounded=0;whiteSpace=wrap;html=1;fillColor=none;" parent="1" vertex="1">
          <mxGeometry x="300" y="100" width="710" height="370" as="geometry" />
        </mxCell>
        <mxCell id="iADVquFSvu7vqTGoxzaM-5" value="" style="rounded=0;whiteSpace=wrap;html=1;fillColor=none;" parent="1" vertex="1">
          <mxGeometry x="300" y="480" width="710" height="390" as="geometry" />
        </mxCell>
        <mxCell id="iADVquFSvu7vqTGoxzaM-6" value="" style="rounded=0;whiteSpace=wrap;html=1;fillColor=none;" parent="1" vertex="1">
          <mxGeometry x="300" y="880" width="710" height="90" as="geometry" />
        </mxCell>
        <mxCell id="iADVquFSvu7vqTGoxzaM-7" value="&lt;div&gt;路&lt;/div&gt;&lt;div&gt;由&lt;/div&gt;&lt;div&gt;总&lt;/div&gt;&lt;div&gt;线&lt;/div&gt;" style="rounded=0;whiteSpace=wrap;html=1;fillColor=none;" parent="1" vertex="1">
          <mxGeometry x="1020" y="100" width="40" height="180" as="geometry" />
        </mxCell>
        <mxCell id="iADVquFSvu7vqTGoxzaM-8" value="&lt;div&gt;消&lt;/div&gt;&lt;div&gt;息&lt;/div&gt;&lt;div&gt;总&lt;/div&gt;&lt;div&gt;线&lt;/div&gt;" style="rounded=0;whiteSpace=wrap;html=1;fillColor=none;" parent="1" vertex="1">
          <mxGeometry x="1070" y="100" width="40" height="360" as="geometry" />
        </mxCell>
        <mxCell id="iADVquFSvu7vqTGoxzaM-9" value="H&lt;br&gt;O&lt;br&gt;O&lt;br&gt;K&lt;br&gt;M&lt;br&gt;A&lt;br&gt;N&lt;br&gt;A&lt;br&gt;G&lt;br&gt;E&lt;br&gt;R" style="rounded=0;whiteSpace=wrap;html=1;fillColor=none;" parent="1" vertex="1">
          <mxGeometry x="100" y="100" width="40" height="770" as="geometry" />
        </mxCell>
        <mxCell id="iADVquFSvu7vqTGoxzaM-10" value="A&lt;br&gt;P&lt;br&gt;I&lt;br&gt;&lt;div&gt;M&lt;/div&gt;&lt;div&gt;a&lt;/div&gt;n&lt;br&gt;a&lt;br&gt;g&lt;br&gt;e&lt;br&gt;r" style="rounded=0;whiteSpace=wrap;html=1;fillColor=none;" parent="1" vertex="1">
          <mxGeometry x="150" y="100" width="40" height="770" as="geometry" />
        </mxCell>
        <mxCell id="iADVquFSvu7vqTGoxzaM-11" value="&lt;div&gt;模&lt;/div&gt;&lt;div&gt;块&lt;/div&gt;&lt;div&gt;管&lt;/div&gt;&lt;div&gt;理&lt;/div&gt;&lt;div&gt;器&lt;/div&gt;" style="rounded=0;whiteSpace=wrap;html=1;fillColor=none;" parent="1" vertex="1">
          <mxGeometry x="200" y="100" width="40" height="770" as="geometry" />
        </mxCell>
        <mxCell id="iADVquFSvu7vqTGoxzaM-12" value="&lt;div&gt;C&lt;/div&gt;&lt;div&gt;P&lt;/div&gt;&lt;div&gt;S&lt;br&gt;&lt;/div&gt;&lt;div&gt;UI&lt;/div&gt;" style="rounded=0;whiteSpace=wrap;html=1;fillColor=none;" parent="1" vertex="1">
          <mxGeometry x="250" y="100" width="40" height="770" as="geometry" />
        </mxCell>
        <mxCell id="iADVquFSvu7vqTGoxzaM-14" value="&lt;div&gt;业&lt;/div&gt;&lt;div&gt;务&lt;/div&gt;&lt;div&gt;层&lt;/div&gt;" style="rounded=0;whiteSpace=wrap;html=1;" parent="1" vertex="1">
          <mxGeometry x="310" y="110" width="40" height="350" as="geometry" />
        </mxCell>
        <mxCell id="iADVquFSvu7vqTGoxzaM-15" value="&lt;div&gt;工&lt;/div&gt;&lt;div&gt;具&lt;/div&gt;&lt;div&gt;层&lt;/div&gt;" style="rounded=0;whiteSpace=wrap;html=1;" parent="1" vertex="1">
          <mxGeometry x="310" y="490" width="40" height="370" as="geometry" />
        </mxCell>
        <mxCell id="iADVquFSvu7vqTGoxzaM-16" value="&lt;div&gt;S&lt;/div&gt;&lt;div&gt;D&lt;/div&gt;&lt;div&gt;K&lt;/div&gt;&lt;div&gt;层&lt;/div&gt;" style="rounded=0;whiteSpace=wrap;html=1;" parent="1" vertex="1">
          <mxGeometry x="310" y="890" width="40" height="70" as="geometry" />
        </mxCell>
        <mxCell id="iADVquFSvu7vqTGoxzaM-17" value="" style="rounded=0;whiteSpace=wrap;html=1;fillColor=none;" parent="1" vertex="1">
          <mxGeometry x="360" y="110" width="640" height="170" as="geometry" />
        </mxCell>
        <mxCell id="iADVquFSvu7vqTGoxzaM-18" value="" style="rounded=0;whiteSpace=wrap;html=1;fillColor=none;" parent="1" vertex="1">
          <mxGeometry x="360" y="290" width="640" height="170" as="geometry" />
        </mxCell>
        <mxCell id="iADVquFSvu7vqTGoxzaM-20" value="" style="rounded=0;whiteSpace=wrap;html=1;fillColor=none;" parent="1" vertex="1">
          <mxGeometry x="360" y="540" width="640" height="130" as="geometry" />
        </mxCell>
        <mxCell id="iADVquFSvu7vqTGoxzaM-21" value="工具层接口" style="rounded=0;whiteSpace=wrap;html=1;fillColor=none;" parent="1" vertex="1">
          <mxGeometry x="360" y="490" width="640" height="40" as="geometry" />
        </mxCell>
        <mxCell id="iADVquFSvu7vqTGoxzaM-22" value="系统SDK" style="rounded=0;whiteSpace=wrap;html=1;" parent="1" vertex="1">
          <mxGeometry x="360" y="890" width="640" height="70" as="geometry" />
        </mxCell>
        <mxCell id="iADVquFSvu7vqTGoxzaM-24" value="业务模块接口" style="rounded=0;whiteSpace=wrap;html=1;fillColor=none;" parent="1" vertex="1">
          <mxGeometry x="370" y="140" width="620" height="40" as="geometry" />
        </mxCell>
        <mxCell id="iADVquFSvu7vqTGoxzaM-25" value="&lt;div&gt;首页导购模块&lt;/div&gt;" style="rounded=0;whiteSpace=wrap;html=1;strokeColor=#000000;" parent="1" vertex="1">
          <mxGeometry x="370" y="190" width="80" height="80" as="geometry" />
        </mxCell>
        <mxCell id="iADVquFSvu7vqTGoxzaM-26" value="特权模块" style="rounded=0;whiteSpace=wrap;html=1;strokeColor=#000000;" parent="1" vertex="1">
          <mxGeometry x="460" y="190" width="80" height="80" as="geometry" />
        </mxCell>
        <mxCell id="iADVquFSvu7vqTGoxzaM-27" value="商学院模块" style="rounded=0;whiteSpace=wrap;html=1;strokeColor=#000000;" parent="1" vertex="1">
          <mxGeometry x="550" y="190" width="80" height="80" as="geometry" />
        </mxCell>
        <mxCell id="iADVquFSvu7vqTGoxzaM-28" value="素材圈模块" style="rounded=0;whiteSpace=wrap;html=1;strokeColor=#000000;" parent="1" vertex="1">
          <mxGeometry x="640" y="190" width="80" height="80" as="geometry" />
        </mxCell>
        <mxCell id="iADVquFSvu7vqTGoxzaM-29" value="用户中心模块" style="rounded=0;whiteSpace=wrap;html=1;strokeColor=#000000;" parent="1" vertex="1">
          <mxGeometry x="730" y="190" width="80" height="80" as="geometry" />
        </mxCell>
        <mxCell id="iADVquFSvu7vqTGoxzaM-30" value="自营商城模块" style="rounded=0;whiteSpace=wrap;html=1;strokeColor=#000000;" parent="1" vertex="1">
          <mxGeometry x="820" y="190" width="80" height="80" as="geometry" />
        </mxCell>
        <mxCell id="iADVquFSvu7vqTGoxzaM-33" value="业务模块" style="text;html=1;strokeColor=none;fillColor=none;align=center;verticalAlign=middle;whiteSpace=wrap;rounded=0;" parent="1" vertex="1">
          <mxGeometry x="370" y="110" width="50" height="30" as="geometry" />
        </mxCell>
        <mxCell id="iADVquFSvu7vqTGoxzaM-34" value="数据层接口" style="rounded=0;whiteSpace=wrap;html=1;fillColor=none;" parent="1" vertex="1">
          <mxGeometry x="370" y="320" width="620" height="40" as="geometry" />
        </mxCell>
        <mxCell id="iADVquFSvu7vqTGoxzaM-35" value="用户数据" style="rounded=0;whiteSpace=wrap;html=1;strokeColor=#000000;" parent="1" vertex="1">
          <mxGeometry x="370" y="370" width="80" height="80" as="geometry" />
        </mxCell>
        <mxCell id="iADVquFSvu7vqTGoxzaM-36" value="商品数据" style="rounded=0;whiteSpace=wrap;html=1;strokeColor=#000000;" parent="1" vertex="1">
          <mxGeometry x="460" y="370" width="80" height="80" as="geometry" />
        </mxCell>
        <mxCell id="iADVquFSvu7vqTGoxzaM-37" value="订单数据" style="rounded=0;whiteSpace=wrap;html=1;strokeColor=#000000;" parent="1" vertex="1">
          <mxGeometry x="550" y="370" width="80" height="80" as="geometry" />
        </mxCell>
        <mxCell id="iADVquFSvu7vqTGoxzaM-38" value="资讯数据" style="rounded=0;whiteSpace=wrap;html=1;strokeColor=#000000;" parent="1" vertex="1">
          <mxGeometry x="640" y="370" width="80" height="80" as="geometry" />
        </mxCell>
        <mxCell id="iADVquFSvu7vqTGoxzaM-39" value="APP配置数据&lt;br&gt;（软硬件）" style="rounded=0;whiteSpace=wrap;html=1;strokeColor=#000000;" parent="1" vertex="1">
          <mxGeometry x="730" y="370" width="80" height="80" as="geometry" />
        </mxCell>
        <mxCell id="iADVquFSvu7vqTGoxzaM-40" value="分享数据" style="rounded=0;whiteSpace=wrap;html=1;strokeColor=#000000;" parent="1" vertex="1">
          <mxGeometry x="820" y="370" width="80" height="80" as="geometry" />
        </mxCell>
        <mxCell id="iADVquFSvu7vqTGoxzaM-41" value="日志数据" style="rounded=0;whiteSpace=wrap;html=1;strokeColor=#000000;" parent="1" vertex="1">
          <mxGeometry x="910" y="370" width="80" height="80" as="geometry" />
        </mxCell>
        <mxCell id="iADVquFSvu7vqTGoxzaM-42" value="业务数据" style="text;html=1;strokeColor=none;fillColor=none;align=center;verticalAlign=middle;whiteSpace=wrap;rounded=0;" parent="1" vertex="1">
          <mxGeometry x="370" y="290" width="50" height="30" as="geometry" />
        </mxCell>
        <mxCell id="iADVquFSvu7vqTGoxzaM-43" value="领域工具" style="text;html=1;strokeColor=none;fillColor=none;align=center;verticalAlign=middle;whiteSpace=wrap;rounded=0;" parent="1" vertex="1">
          <mxGeometry x="370" y="540" width="50" height="30" as="geometry" />
        </mxCell>
        <mxCell id="iADVquFSvu7vqTGoxzaM-44" value="ResUpdate&lt;br&gt;（资源更新）" style="rounded=0;whiteSpace=wrap;html=1;strokeColor=#000000;" parent="1" vertex="1">
          <mxGeometry x="370" y="570" width="110" height="40" as="geometry" />
        </mxCell>
        <mxCell id="iADVquFSvu7vqTGoxzaM-54" value="AppUpgrade&lt;br&gt;（软件升级）" style="rounded=0;whiteSpace=wrap;html=1;strokeColor=#000000;" parent="1" vertex="1">
          <mxGeometry x="490" y="570" width="110" height="40" as="geometry" />
        </mxCell>
        <mxCell id="iADVquFSvu7vqTGoxzaM-55" value="ResourceManager&lt;br&gt;（资源管理）" style="rounded=0;whiteSpace=wrap;html=1;strokeColor=#000000;" parent="1" vertex="1">
          <mxGeometry x="610" y="570" width="120" height="40" as="geometry" />
        </mxCell>
        <mxCell id="iADVquFSvu7vqTGoxzaM-56" value="PluginManager&lt;br&gt;（插件管理）" style="rounded=0;whiteSpace=wrap;html=1;strokeColor=#000000;" parent="1" vertex="1">
          <mxGeometry x="740" y="570" width="120" height="40" as="geometry" />
        </mxCell>
        <mxCell id="iADVquFSvu7vqTGoxzaM-57" value="ThirdLogin&lt;br&gt;（第三方登录）" style="rounded=0;whiteSpace=wrap;html=1;strokeColor=#000000;" parent="1" vertex="1">
          <mxGeometry x="870" y="570" width="120" height="40" as="geometry" />
        </mxCell>
        <mxCell id="iADVquFSvu7vqTGoxzaM-58" value="ThirdPay&lt;br&gt;（第三方支付）" style="rounded=0;whiteSpace=wrap;html=1;strokeColor=#000000;" parent="1" vertex="1">
          <mxGeometry x="490" y="620" width="110" height="40" as="geometry" />
        </mxCell>
        <mxCell id="iADVquFSvu7vqTGoxzaM-59" value="Jpush&lt;br&gt;（极光推送）" style="rounded=0;whiteSpace=wrap;html=1;strokeColor=#000000;" parent="1" vertex="1">
          <mxGeometry x="610" y="620" width="120" height="40" as="geometry" />
        </mxCell>
        <mxCell id="iADVquFSvu7vqTGoxzaM-60" value="Umeng&lt;br&gt;（友盟统计）" style="rounded=0;whiteSpace=wrap;html=1;strokeColor=#000000;" parent="1" vertex="1">
          <mxGeometry x="740" y="620" width="120" height="40" as="geometry" />
        </mxCell>
        <mxCell id="iADVquFSvu7vqTGoxzaM-63" value="" style="rounded=0;whiteSpace=wrap;html=1;fillColor=none;" parent="1" vertex="1">
          <mxGeometry x="360" y="680" width="640" height="180" as="geometry" />
        </mxCell>
        <mxCell id="iADVquFSvu7vqTGoxzaM-64" value="通用工具" style="text;html=1;strokeColor=none;fillColor=none;align=center;verticalAlign=middle;whiteSpace=wrap;rounded=0;" parent="1" vertex="1">
          <mxGeometry x="370" y="680" width="50" height="30" as="geometry" />
        </mxCell>
        <mxCell id="iADVquFSvu7vqTGoxzaM-65" value="LogManager&lt;br&gt;（日志）" style="rounded=0;whiteSpace=wrap;html=1;strokeColor=#000000;" parent="1" vertex="1">
          <mxGeometry x="370" y="710" width="110" height="40" as="geometry" />
        </mxCell>
        <mxCell id="iADVquFSvu7vqTGoxzaM-66" value="CacheManager&lt;br&gt;（缓存）" style="rounded=0;whiteSpace=wrap;html=1;strokeColor=#000000;" parent="1" vertex="1">
          <mxGeometry x="490" y="710" width="110" height="40" as="geometry" />
        </mxCell>
        <mxCell id="iADVquFSvu7vqTGoxzaM-67" value="ErrorAnalysis&lt;br&gt;（异常诊断工具）" style="rounded=0;whiteSpace=wrap;html=1;strokeColor=#000000;" parent="1" vertex="1">
          <mxGeometry x="610" y="710" width="120" height="40" as="geometry" />
        </mxCell>
        <mxCell id="iADVquFSvu7vqTGoxzaM-68" value="Camera&lt;br&gt;（摄像机封装）" style="rounded=0;whiteSpace=wrap;html=1;strokeColor=#000000;" parent="1" vertex="1">
          <mxGeometry x="740" y="710" width="120" height="40" as="geometry" />
        </mxCell>
        <mxCell id="iADVquFSvu7vqTGoxzaM-69" value="Vidio&lt;br&gt;（视频封装）" style="rounded=0;whiteSpace=wrap;html=1;strokeColor=#000000;" parent="1" vertex="1">
          <mxGeometry x="870" y="710" width="120" height="40" as="geometry" />
        </mxCell>
        <mxCell id="iADVquFSvu7vqTGoxzaM-73" value="HTTP&lt;br&gt;（网络）" style="rounded=0;whiteSpace=wrap;html=1;strokeColor=#000000;" parent="1" vertex="1">
          <mxGeometry x="740" y="760" width="120" height="40" as="geometry" />
        </mxCell>
        <mxCell id="iADVquFSvu7vqTGoxzaM-74" value="SQLite&lt;br&gt;（数据库）" style="rounded=0;whiteSpace=wrap;html=1;strokeColor=#000000;" parent="1" vertex="1">
          <mxGeometry x="870" y="760" width="120" height="40" as="geometry" />
        </mxCell>
        <mxCell id="iADVquFSvu7vqTGoxzaM-75" value="FileManager&lt;br&gt;（文件管理）" style="rounded=0;whiteSpace=wrap;html=1;" parent="1" vertex="1">
          <mxGeometry x="370" y="810" width="110" height="40" as="geometry" />
        </mxCell>
        <mxCell id="tHbu37OB4x_Eq6fYE6Ek-1" value="Audio&lt;br&gt;（音频封装）" style="rounded=0;whiteSpace=wrap;html=1;" parent="1" vertex="1">
          <mxGeometry x="370" y="760" width="110" height="40" as="geometry" />
        </mxCell>
        <mxCell id="tHbu37OB4x_Eq6fYE6Ek-2" value="ImagePicker&lt;br&gt;(图片选择)" style="rounded=0;whiteSpace=wrap;html=1;strokeColor=#000000;" parent="1" vertex="1">
          <mxGeometry x="490" y="760" width="110" height="40" as="geometry" />
        </mxCell>
        <mxCell id="tHbu37OB4x_Eq6fYE6Ek-3" value="&lt;div&gt;Toast&lt;/div&gt;&lt;div&gt;（提示）&lt;br&gt;&lt;/div&gt;" style="rounded=0;whiteSpace=wrap;html=1;strokeColor=#000000;" parent="1" vertex="1">
          <mxGeometry x="610" y="760" width="120" height="40" as="geometry" />
        </mxCell>
        <mxCell id="tHbu37OB4x_Eq6fYE6Ek-4" value="ThirdShare&lt;br&gt;（第三方分享）" style="rounded=0;whiteSpace=wrap;html=1;strokeColor=#000000;" parent="1" vertex="1">
          <mxGeometry x="370" y="620" width="110" height="40" as="geometry" />
        </mxCell>
      </root>
    </mxGraphModel>
  </diagram>
</mxfile>
